<svg width="24" height="24" viewBox="0 0 24 24" fill="none" xmlns="http://www.w3.org/2000/svg">
<path fill-rule="evenodd" clip-rule="evenodd" d="M24 12C24 5.3731 18.6269 0 12 0C5.37309 0 0 5.3731 0 12C0 17.989 4.38761 22.9537 10.1252 23.855V15.4696H7.07748V12H10.1252V9.35564C10.1252 6.34843 11.9173 4.68622 14.6578 4.68622C15.9707 4.68622 17.3444 4.92078 17.3444 4.92078V7.874H15.8306C14.3406 7.874 13.8748 8.79877 13.8748 9.74882V11.9999H17.2026L16.671 15.4695H13.8747V23.8549C19.6123 22.9553 23.9999 17.9906 23.9999 11.9999L24 12Z" fill="white"/>
</svg>
