<svg width="24" height="24" viewBox="0 0 24 24" fill="none" xmlns="http://www.w3.org/2000/svg">
<g clip-path="url(#clip0_20_45)">
<path d="M11.99 3C6.47 3 3 6.48 3 12C3 17.52 6.47 21 11.99 21C17.52 21 21 17.52 21 12C21 6.48 17.52 3 11.99 3ZM12 19C7.58 19 5 16.42 5 12C5 7.58 7.58 5 12 5C16.42 5 19 7.58 19 12C19 16.42 16.42 19 12 19ZM12.5 8H11V13L15.25 15.15L16 13.92L12.5 12.25V8Z" fill="white"/>
</g>
<defs>
<clipPath id="clip0_20_45">
<rect width="24" height="24" fill="white"/>
</clipPath>
</defs>
</svg>
