<svg width="18" height="16" viewBox="0 0 18 16" fill="none" xmlns="http://www.w3.org/2000/svg">
<path d="M17.1818 15.9908H12.3269L11.8026 15.2883L9.47719 12.181L8.80606 11.2837L6.07724 7.64185H10.9792L11.7112 8.62685C11.7503 8.42301 11.7698 8.21589 11.7694 8.00834C11.7688 7.37037 11.5828 6.74632 11.2341 6.21208C10.8854 5.67784 10.389 5.25643 9.80522 4.99911C9.22145 4.74178 8.57548 4.65963 7.94589 4.76264C7.31629 4.86565 6.73019 5.14938 6.25886 5.57934C5.78754 6.00929 5.4513 6.56693 5.29104 7.18444C5.13078 7.80195 5.1534 8.45273 5.35616 9.05762C5.55892 9.66251 5.93307 10.1955 6.43312 10.5916C6.93316 10.9878 7.53755 11.2302 8.17278 11.2892L8.87345 12.277V12.2816L11.2912 15.5006C9.48374 16.1711 7.49499 16.1663 5.69078 15.4872C3.88657 14.8081 2.38826 13.5004 1.47148 11.8045C0.554694 10.1087 0.281103 8.13884 0.701035 6.25735C1.12097 4.37587 2.20617 2.70929 3.75702 1.56421C5.30787 0.419138 7.22005 -0.127421 9.14179 0.0250846C11.0635 0.17759 12.8656 1.0189 14.2164 2.39425C15.5672 3.7696 16.376 5.58647 16.4939 7.51065C16.6118 9.43482 16.031 11.3369 14.8582 12.8669L17.1818 15.9908Z" fill="white"/>
</svg>
