<svg width="20" height="17" viewBox="0 0 20 17" fill="none" xmlns="http://www.w3.org/2000/svg">
<path d="M6.28978 16.2542C13.8373 16.2542 17.9648 10.0013 17.9648 4.57913C17.9648 4.40155 17.9612 4.22477 17.9532 4.04874C18.7544 3.46955 19.4507 2.74674 20 1.92393C19.2648 2.25078 18.4736 2.47077 17.6436 2.56996C18.4908 2.06198 19.1412 1.25837 19.448 0.3004C18.6552 0.770394 17.7772 1.112 16.8424 1.29643C16.0936 0.498854 15.0276 0 13.8472 0C11.5812 0 9.74362 1.83762 9.74362 4.10276C9.74362 4.42477 9.77966 4.73792 9.85007 5.03839C6.43971 4.86678 3.41566 3.23398 1.39179 0.751198C1.03938 1.35757 0.836162 2.06198 0.836162 2.81359C0.836162 4.23719 1.56058 5.49395 2.66218 6.22918C1.98897 6.20837 1.35656 6.02355 0.803814 5.71597C0.80321 5.73321 0.803208 5.74999 0.803208 5.76838C0.803208 7.7556 2.21762 9.41477 4.09518 9.79074C3.75042 9.8847 3.3876 9.9351 3.01318 9.9351C2.74922 9.9351 2.49198 9.90913 2.24198 9.86115C2.76439 11.4915 4.2792 12.678 6.07515 12.7111C4.67074 13.8119 2.90157 14.4675 0.978778 14.4675C0.647977 14.4675 0.321204 14.4487 0 14.4107C1.81602 15.5747 3.97236 16.2539 6.28998 16.2539" fill="white"/>
</svg>
